<svg xmlns="http://www.w3.org/2000/svg" width="512" height="320" viewBox="0 0 512 320"><defs><linearGradient id="silver" x2=".85" y2="1"><stop stop-color="#eee5ca"/><stop offset=".38" stop-color="#9daca0"/><stop offset=".58" stop-color="#e0ddc7"/><stop offset="1" stop-color="#5b716c"/></linearGradient><linearGradient id="paper" x2=".3" y2="1"><stop stop-color="#e7daba"/><stop offset="1" stop-color="#afa57f"/></linearGradient></defs><ellipse cx="256" cy="280" rx="120" ry="10" fill="#252e2a" opacity=".22"/><path d="M256 276 L42 113 Q111 29 256 34 Q399 29 471 113Z" fill="url(#paper)" stroke="#514f3c" stroke-width="5"/><path d="M256 276 L42 113" stroke="#776f4b" stroke-width="2" opacity=".65"/><path d="M256 276 L80 82" stroke="#776f4b" stroke-width="2" opacity=".65"/><path d="M256 276 L124 58" stroke="#776f4b" stroke-width="2" opacity=".65"/><path d="M256 276 L169 42" stroke="#776f4b" stroke-width="2" opacity=".65"/><path d="M256 276 L215 35" stroke="#776f4b" stroke-width="2" opacity=".65"/><path d="M256 276 L256 34" stroke="#776f4b" stroke-width="2" opacity=".65"/><path d="M256 276 L300 35" stroke="#776f4b" stroke-width="2" opacity=".65"/><path d="M256 276 L344 44" stroke="#776f4b" stroke-width="2" opacity=".65"/><path d="M256 276 L388 61" stroke="#776f4b" stroke-width="2" opacity=".65"/><path d="M256 276 L433 88" stroke="#776f4b" stroke-width="2" opacity=".65"/><path d="M256 276 L471 113" stroke="#776f4b" stroke-width="2" opacity=".65"/><path d="M93 122 l38 -41 33 28 25 -21 39 44 35 -57 54 70 31 -48 60 38" fill="none" stroke="#697d70" stroke-width="9" opacity=".72"/><path d="M162 137 Q230 152 267 134 T368 140" fill="none" stroke="#8f9e82" stroke-width="4"/><path d="M256 278 L42 113 M256 278 L471 113" stroke="#625440" stroke-width="10"/><circle cx="256" cy="270" r="5" fill="#ab905a"/></svg>