<svg xmlns="http://www.w3.org/2000/svg" width="360" height="430" viewBox="0 0 360 430">
<path d="M74 430 L83 279 L138 239 L218 239 L276 279 L292 430Z" fill="#535f60" stroke="#363e33" stroke-width="5"/><path d="M155 207 L155 250 L180 269 L207 250 L205 207" fill="#a7a184" stroke="#656953" stroke-width="3"/><path d="M133 114 Q180 85 226 114 L222 184 L204 214 L179 228 L153 214 L136 184Z" fill="#b6ac8b" stroke="#555d4a" stroke-width="4"/><path d="M145 148 L165 147 M196 147 L216 148 M181 155 L176 180 L187 180 M164 201 L198 201" fill="none" stroke="#6c7058" stroke-width="3"/><path d="M130 116 Q128 76 172 71 Q222 73 228 116 L201 103 L164 107 L148 116Z" fill="#333b35"/><path d="M176 79 L161 105" stroke="#80806a" stroke-width="3"/><g fill="none" stroke="#434b40" stroke-width="3"><ellipse cx="155" cy="150" rx="20" ry="14"/><ellipse cx="205" cy="150" rx="20" ry="14"/><path d="M175 148 L185 148 M135 148 L128 142 M225 148 L233 142"/></g><path d="M140 248 L180 280 L218 248 M180 280 L180 430" fill="none" stroke="#a4a187" stroke-width="3"/><path d="M181 303 L203 303 M181 339 L204 339" stroke="#a4a187" stroke-width="4"/><path d="M118 357 L246 343 L251 411 L126 425Z" fill="#9b8968" stroke="#444b3e" stroke-width="3"/><path d="M135 365 L144 417 M157 366 L229 358 M159 378 L231 370" stroke="#c3b58d" stroke-width="2"/>
</svg>
